<svg xmlns="http://www.w3.org/2000/svg" viewBox="0 0 24 24" width="35" height="35">
  <circle cx="12" cy="12" r="12" fill="#7938B2"/>
  <path fill="#ffffff" d="M12 4.5c-4.14 0-7.5 3.36-7.5 7.5 0 3.32 2.15 6.13 5.13 7.12.38.07.51-.16.51-.36 0-.18-.01-.66-.01-1.3-2.09.45-2.53-1.01-2.53-1.01-.34-.86-.83-1.09-.83-1.09-.68-.46.05-.45.05-.45.75.05 1.15.77 1.15.77.67 1.14 1.76.81 2.19.62.07-.49.26-.81.47-1-1.66-.19-3.41-.83-3.41-3.7 0-.82.29-1.49.77-2.01-.08-.19-.34-.95.07-1.98 0 0 .63-.2 2.05.76.6-.17 1.24-.25 1.88-.25.64 0 1.28.08 1.88.25 1.42-.96 2.05-.76 2.05-.76.41 1.03.15 1.79.07 1.98.48.52.77 1.19.77 2.01 0 2.88-1.75 3.5-3.42 3.69.27.23.51.69.51 1.39 0 1.01-.01 1.82-.01 2.06 0 .2.13.44.51.36 2.98-.99 5.13-3.8 5.13-7.12 0-4.14-3.36-7.5-7.5-7.5z"/>
</svg>